<?xml version="1.0" encoding="UTF-8" standalone="no"?>
<svg
   xmlns:dc="http://purl.org/dc/elements/1.1/"
   xmlns:cc="http://creativecommons.org/ns#"
   xmlns:rdf="http://www.w3.org/1999/02/22-rdf-syntax-ns#"
   xmlns:svg="http://www.w3.org/2000/svg"
   xmlns="http://www.w3.org/2000/svg"
   xmlns:sodipodi="http://sodipodi.sourceforge.net/DTD/sodipodi-0.dtd"
   xmlns:inkscape="http://www.inkscape.org/namespaces/inkscape"
   version="1.1"
   id="svg871"
   xml:space="preserve"
   width="71"
   height="71"
   viewBox="0 0 71.000003 70.999998"
   sodipodi:docname="GLogoWhite.svg"
   inkscape:version="1.0.1 (c497b03c, 2020-09-10)"><metadata
     id="metadata877"><rdf:RDF><cc:Work
         rdf:about=""><dc:format>image/svg+xml</dc:format><dc:type
           rdf:resource="http://purl.org/dc/dcmitype/StillImage" /><dc:title></dc:title></cc:Work></rdf:RDF></metadata><defs
     id="defs875"><clipPath
       clipPathUnits="userSpaceOnUse"
       id="clipPath891"><path
         d="M 0,566.929 H 1133.858 V 0 H 0 Z"
         id="path889" /></clipPath></defs><sodipodi:namedview
     pagecolor="#ffffff"
     bordercolor="#666666"
     borderopacity="1"
     objecttolerance="10"
     gridtolerance="10"
     guidetolerance="10"
     inkscape:pageopacity="0"
     inkscape:pageshadow="2"
     inkscape:window-width="1792"
     inkscape:window-height="998"
     id="namedview873"
     showgrid="false"
     inkscape:zoom="9.3693861"
     inkscape:cx="30.123066"
     inkscape:cy="32.055461"
     inkscape:window-x="0"
     inkscape:window-y="23"
     inkscape:window-maximized="0"
     inkscape:current-layer="g879"
     inkscape:document-rotation="0"
     units="px" /><g
     id="g879"
     inkscape:groupmode="layer"
     inkscape:label="GIANTDRONE CI"
     transform="matrix(1.3333333,0,0,-1.3333333,0,755.90533)"><g
       id="g881"
       transform="matrix(0.22128571,0,0,0.22023572,14.148733,540.17333)"
       style="stroke-width:4.63761;stroke-miterlimit:4;stroke-dasharray:none"><g
         id="g2254"
         inkscape:export-filename="/Users/madman/Desktop/GLogoWhite.png"
         inkscape:export-xdpi="96"
         inkscape:export-ydpi="96"
         style="fill:#004387;fill-opacity:1"><g
           id="g846"
           inkscape:export-xdpi="96"
           inkscape:export-ydpi="96"><rect
             style="fill:#004387;fill-opacity:1;stroke:#ffffff;stroke-width:1.98425;stroke-linejoin:round;stroke-miterlimit:4;stroke-dasharray:none;stroke-opacity:1"
             id="rect2239"
             width="50.026775"
             height="50.026775"
             x="76.611618"
             y="-490.31741"
             transform="matrix(4.6266255,0,0,-4.6509538,-413.80183,-2163.5714)"
             rx="9.7799044"
             ry="7.907887" /><path
             d="m 0,0 v 0 h 43.608 l -23.412,-10.652 25.556,-24.472 1.049,-1.072 h -1.049 l 4.242,-26.617 -8.518,9.579 L 2.11,-14.905 -5.337,-6.398 -56.395,0 Z m 56.369,56.416 v 0 -43.644 L 45.752,37.257 20.196,11.712 V 10.64 h -1.06 l -25.545,-3.193 8.519,8.519 39.366,38.317 7.458,8.519 7.435,51.101 z M 112.761,1.061 v 0 H 69.141 L 92.554,11.712 67.009,37.257 h -1.05 1.05 l -4.254,26.605 8.531,-9.579 39.354,-38.317 7.447,-7.447 51.066,-7.458 z M 56.369,-55.354 v 43.631 l 10.64,-23.401 25.545,24.472 v 1.072 h 1.071 l 25.545,4.254 -8.53,-9.579 -39.354,-38.329 -7.447,-7.446 -7.47,-52.151 z"
             style="fill:#ffffff;fill-opacity:1;fill-rule:nonzero;stroke:none;stroke-width:4.63761;stroke-miterlimit:4;stroke-dasharray:none"
             id="path883" /></g></g></g></g></svg>
